<svg aria-hidden="true" style="position: absolute; width: 0; height: 0; overflow: hidden;" version="1.1" xmlns="http://www.w3.org/2000/svg" xmlns:xlink="http://www.w3.org/1999/xlink">
<defs>
<symbol id="icon-clear" viewBox="0 0 16 16">
<path d="M12.667 4.273l-0.94-0.94-3.727 3.727-3.727-3.727-0.94 0.94 3.727 3.727-3.727 3.727 0.94 0.94 3.727-3.727 3.727 3.727 0.94-0.94-3.727-3.727 3.727-3.727z"></path>
</symbol>
<symbol id="icon-check" viewBox="0 0 16 16">
<path d="M8 1.333c-3.68 0-6.667 2.987-6.667 6.667s2.987 6.667 6.667 6.667c3.68 0 6.667-2.987 6.667-6.667s-2.987-6.667-6.667-6.667zM8 13.333c-2.94 0-5.333-2.393-5.333-5.333s2.393-5.333 5.333-5.333c2.94 0 5.333 2.393 5.333 5.333s-2.393 5.333-5.333 5.333zM11.060 5.053l-4.393 4.393-1.727-1.72-0.94 0.94 2.667 2.667 5.333-5.333-0.94-0.947z"></path>
</symbol>
<symbol id="icon-add" viewBox="0 0 16 16">
<path d="M12.667 8.667h-4v4h-1.333v-4h-4v-1.333h4v-4h1.333v4h4v1.333z"></path>
</symbol>
<symbol id="icon-search" viewBox="0 0 16 16">
<path   d="M10.333 9.333h-0.527l-0.187-0.18c0.653-0.76 1.047-1.747 1.047-2.82 0-2.393-1.94-4.333-4.333-4.333s-4.333 1.94-4.333 4.333c0 2.393 1.94 4.333 4.333 4.333 1.073 0 2.060-0.393 2.82-1.047l0.18 0.187v0.527l3.333 3.327 0.993-0.993-3.327-3.333zM6.333 9.333c-1.66 0-3-1.34-3-3s1.34-3 3-3c1.66 0 3 1.34 3 3s-1.34 3-3 3z"></path>
</symbol>
<symbol id="icon-book" viewBox="0 0 16 16">
<path   d="M4.008 12h9.992v-9.333c0-0.354-0.14-0.693-0.391-0.943s-0.589-0.391-0.943-0.391h-8.667c-0.804 0-2 0.533-2 2v9.333c0 1.467 1.196 2 2 2h10v-1.333h-9.992c-0.308-0.008-0.675-0.13-0.675-0.667s0.367-0.659 0.675-0.667zM5.333 4h6v1.333h-6v-1.333z"></path>
</symbol>
<symbol id="icon-graph" viewBox="0 0 16 16">
<path   d="M0.573 14.857h15.175v-1.185h-13.989v-11.556h-1.185v12.741zM2.647 12.529h13.037v-9.354l-2.751 2.519-2.561-0.931-2.709 3.090-2.773-0.995-2.243 2.328v3.344z"></path>
</symbol>
<symbol id="icon-admin" viewBox="0 0 16 16">
<path   d="M11.416 5.496l-3.416-2.984-3.416 2.984-0.584-0.584 4-3.504 4 3.504-0.584 0.584zM11.2 6.736l-3.24 2.744-3.16-2.776v-0.592l3.2-2.8 3.2 2.8v0.624zM8.8 7.76v-1.36h-1.6v1.36h1.6zM7.416 10.984l-3.416-2.984-3.416 2.984-0.584-0.584 4-3.504 4 3.504-0.584 0.584zM15.416 10.984l-3.416-2.984-3.416 2.984-0.584-0.584 4-3.504 4 3.504-0.584 0.584zM4 8.8l3.2 2.8v2.8h-6.4v-2.8l3.2-2.8zM12 8.8l3.2 2.8v2.8h-6.4v-2.8l3.2-2.8zM4.8 13.6v-1.6h-1.6v1.6h1.6zM12.8 13.6v-1.6h-1.6v1.6h1.6z"></path>
</symbol>
<symbol id="icon-student" viewBox="0 0 16 16">
<path   d="M14.158 3.526l-6-2c-0.103-0.034-0.214-0.034-0.316 0l-6 2c-0.002 0.001-0.003 0.002-0.005 0.002-0.022 0.007-0.043 0.016-0.063 0.027-0.002 0.001-0.005 0.002-0.007 0.003-0.020 0.011-0.040 0.023-0.058 0.036-0.004 0.003-0.008 0.006-0.012 0.009-0.018 0.014-0.035 0.028-0.051 0.044-0.001 0.002-0.003 0.003-0.004 0.005-0.015 0.015-0.029 0.032-0.041 0.049-0.003 0.003-0.005 0.007-0.008 0.010-0.013 0.019-0.025 0.038-0.035 0.058-0.002 0.003-0.003 0.006-0.005 0.009-0.010 0.020-0.018 0.040-0.025 0.061-0.001 0.002-0.002 0.004-0.002 0.006-0.007 0.022-0.013 0.045-0.016 0.068-0.001 0.005-0.002 0.010-0.002 0.014-0.004 0.024-0.006 0.048-0.006 0.071v5c0 0.133 0.053 0.26 0.146 0.354s0.221 0.146 0.354 0.146c0.133 0 0.26-0.053 0.354-0.146s0.146-0.221 0.146-0.354v-4.306l2.099 0.7c-0.556 0.899-0.735 1.981-0.495 3.010s0.876 1.922 1.772 2.483c-1.193 0.451-2.211 1.271-2.905 2.34-0.037 0.055-0.062 0.117-0.075 0.182s-0.012 0.132 0.001 0.197c0.013 0.065 0.039 0.126 0.076 0.181s0.085 0.101 0.14 0.138c0.055 0.036 0.117 0.061 0.182 0.073s0.132 0.011 0.196-0.003 0.126-0.041 0.18-0.079c0.054-0.038 0.1-0.086 0.136-0.142 0.454-0.698 1.076-1.271 1.808-1.668s1.551-0.605 2.384-0.605c0.833 0 1.652 0.208 2.384 0.605s1.353 0.97 1.807 1.668c0.036 0.055 0.082 0.103 0.136 0.141s0.115 0.064 0.18 0.078c0.064 0.014 0.131 0.015 0.196 0.003s0.127-0.037 0.182-0.073c0.055-0.036 0.103-0.083 0.14-0.137s0.063-0.116 0.077-0.18c0.013-0.065 0.014-0.131 0.002-0.196s-0.037-0.126-0.074-0.181c-0.695-1.069-1.713-1.889-2.905-2.34 0.896-0.561 1.533-1.454 1.772-2.483s0.061-2.112-0.495-3.010l2.757-0.919c0.1-0.033 0.186-0.097 0.248-0.182s0.094-0.187 0.094-0.292c0-0.105-0.033-0.207-0.094-0.292s-0.148-0.149-0.248-0.182zM8 10.5c-0.555 0-1.099-0.154-1.571-0.444s-0.855-0.707-1.106-1.202c-0.25-0.495-0.358-1.050-0.312-1.603s0.245-1.082 0.574-1.529l2.258 0.753c0.103 0.034 0.214 0.034 0.316 0l2.258-0.753c0.329 0.447 0.528 0.976 0.574 1.529s-0.062 1.108-0.312 1.603c-0.25 0.495-0.633 0.911-1.106 1.202s-1.017 0.444-1.571 0.444z"></path>
</symbol>
<symbol id="icon-teacher" viewBox="0 0 16 16">
<path   d="M13.5 2.5h-11c-0.265 0-0.519 0.106-0.707 0.293s-0.293 0.442-0.293 0.707v9c0 0.131 0.026 0.261 0.076 0.383s0.124 0.232 0.217 0.324c0.093 0.093 0.203 0.167 0.324 0.217s0.251 0.076 0.383 0.076l0.837-0c0.095-0 0.187-0.027 0.267-0.077s0.144-0.123 0.184-0.208c0.243-0.513 0.628-0.946 1.108-1.25s1.036-0.465 1.604-0.465 1.124 0.161 1.604 0.465c0.48 0.303 0.864 0.737 1.107 1.25 0.041 0.085 0.105 0.158 0.184 0.208s0.173 0.077 0.267 0.077l3.837 0c0.265-0 0.519-0.106 0.707-0.293s0.293-0.442 0.293-0.707v-9c-0-0.265-0.106-0.519-0.293-0.707s-0.442-0.293-0.707-0.293zM6.5 10.5c-0.396 0-0.782-0.117-1.111-0.337s-0.585-0.532-0.737-0.898-0.191-0.768-0.114-1.156c0.077-0.388 0.268-0.744 0.547-1.024s0.636-0.47 1.024-0.547c0.388-0.077 0.79-0.038 1.156 0.114s0.678 0.408 0.898 0.737c0.22 0.329 0.337 0.716 0.337 1.111-0.001 0.53-0.212 1.039-0.586 1.414s-0.883 0.586-1.414 0.586zM13.5 12.5l-3.535-0c-0.218-0.376-0.496-0.714-0.823-1h2.858c0.133 0 0.26-0.053 0.354-0.146s0.146-0.221 0.146-0.354v-6c0-0.133-0.053-0.26-0.146-0.354s-0.221-0.146-0.354-0.146h-8c-0.133 0-0.26 0.053-0.354 0.146s-0.146 0.221-0.146 0.354v6c0 0.111 0.037 0.219 0.105 0.307s0.164 0.15 0.271 0.177c-0.335 0.29-0.619 0.633-0.841 1.016h-0.535v-9h11v9z"></path>
</symbol>
<symbol id="icon-task-list" viewBox="0 0 16 16">
<path   d="M6.8 1.6c-0.248-0-0.49 0.077-0.693 0.22s-0.356 0.346-0.439 0.58h-1.268c-0.318 0-0.623 0.126-0.849 0.351s-0.351 0.53-0.351 0.849v9.6c0 0.318 0.126 0.623 0.351 0.849s0.53 0.351 0.849 0.351h7.2c0.318 0 0.623-0.126 0.849-0.351s0.351-0.53 0.351-0.849v-9.6c0-0.318-0.126-0.623-0.351-0.849s-0.53-0.351-0.849-0.351h-1.268c-0.083-0.234-0.236-0.437-0.439-0.58s-0.445-0.22-0.693-0.22h-2.4zM6.4 2.8c0-0.106 0.042-0.208 0.117-0.283s0.177-0.117 0.283-0.117h2.4c0.106 0 0.208 0.042 0.283 0.117s0.117 0.177 0.117 0.283c0 0.106-0.042 0.208-0.117 0.283s-0.177 0.117-0.283 0.117h-2.4c-0.106 0-0.208-0.042-0.283-0.117s-0.117-0.177-0.117-0.283zM7.483 6.283l-1.4 1.4c-0.073 0.073-0.171 0.115-0.274 0.117s-0.203-0.035-0.279-0.105l-0.6-0.548c-0.041-0.035-0.074-0.078-0.098-0.126s-0.038-0.1-0.041-0.154c-0.003-0.054 0.004-0.107 0.022-0.158s0.046-0.097 0.082-0.137c0.036-0.040 0.080-0.072 0.129-0.094s0.102-0.035 0.155-0.036c0.054-0.002 0.107 0.008 0.157 0.027s0.096 0.049 0.134 0.086l0.318 0.29 1.13-1.13c0.037-0.037 0.081-0.067 0.13-0.087s0.101-0.030 0.153-0.030c0.053 0 0.105 0.010 0.153 0.030s0.093 0.050 0.13 0.087 0.067 0.081 0.087 0.13c0.020 0.049 0.031 0.101 0.031 0.153s-0.010 0.105-0.031 0.153c-0.020 0.049-0.050 0.093-0.087 0.13zM7.483 9.717c0.037 0.037 0.067 0.081 0.087 0.13s0.031 0.101 0.031 0.153c0 0.053-0.010 0.105-0.031 0.153s-0.050 0.093-0.087 0.13l-1.4 1.4c-0.073 0.073-0.171 0.115-0.274 0.117s-0.203-0.035-0.279-0.105l-0.6-0.548c-0.074-0.073-0.118-0.171-0.121-0.275s0.034-0.205 0.104-0.281c0.070-0.077 0.167-0.123 0.271-0.129s0.206 0.028 0.285 0.095l0.318 0.29 1.13-1.13c0.037-0.037 0.081-0.067 0.13-0.087s0.101-0.031 0.153-0.031 0.105 0.010 0.153 0.031c0.049 0.020 0.093 0.050 0.13 0.087zM8.8 10.4h2c0.106 0 0.208 0.042 0.283 0.117s0.117 0.177 0.117 0.283c0 0.106-0.042 0.208-0.117 0.283s-0.177 0.117-0.283 0.117h-2c-0.106 0-0.208-0.042-0.283-0.117s-0.117-0.177-0.117-0.283c0-0.106 0.042-0.208 0.117-0.283s0.177-0.117 0.283-0.117zM8.4 6.8c0-0.106 0.042-0.208 0.117-0.283s0.177-0.117 0.283-0.117h2c0.106 0 0.208 0.042 0.283 0.117s0.117 0.177 0.117 0.283c0 0.106-0.042 0.208-0.117 0.283s-0.177 0.117-0.283 0.117h-2c-0.106 0-0.208-0.042-0.283-0.117s-0.117-0.177-0.117-0.283z"></path>
</symbol>
<symbol id="icon-archive" viewBox="0 0 16 16">
<path   d="M10.77 2.857h-5.233c0 0-0.655 0-0.655 0.657h6.542c0-0.657-0.655-0.657-0.655-0.657zM12.733 4.829c0-0.657-0.654-0.657-0.654-0.657h-7.85c0 0-0.654 0-0.654 0.657v0.657h9.158v-0.657zM14.041 5.486l-0.386-0.389v1.046h-11.001v-1.046l-0.387 0.389c-0.387 0.389-0.664 0.493-0.509 1.314 0.155 0.819 0.906 5.307 1.018 5.914 0.122 0.666 0.8 0.657 0.8 0.657h9.158c0 0 0.677 0.009 0.8-0.657 0.112-0.607 0.862-5.095 1.018-5.914 0.154-0.821-0.123-0.925-0.511-1.314zM10.783 9.427c0 0.364-0.295 0.659-0.659 0.659h-3.939c-0.175 0-0.342-0.069-0.466-0.193s-0.193-0.291-0.193-0.466v-1.312h0.657v1.314h3.943v-1.314h0.657v1.312z"></path>
</symbol>
<symbol id="icon-settings" viewBox="0 0 16 16">
<path  opacity="0.3" d="M12.853 5.733l-0.467-0.807-0.847 0.34-0.707 0.287-0.607-0.467c-0.26-0.2-0.533-0.36-0.82-0.473l-0.707-0.287-0.107-0.753-0.127-0.907h-0.933l-0.127 0.9-0.107 0.753-0.707 0.293c-0.273 0.113-0.547 0.273-0.833 0.487l-0.6 0.453-0.7-0.28-0.847-0.347-0.467 0.807 0.72 0.56 0.593 0.467-0.093 0.753c-0.020 0.2-0.033 0.353-0.033 0.487s0.013 0.287 0.033 0.487l0.093 0.753-0.593 0.467-0.72 0.56 0.467 0.807 0.847-0.34 0.707-0.287 0.607 0.467c0.26 0.2 0.533 0.36 0.82 0.473l0.707 0.287 0.107 0.753 0.127 0.907h0.927l0.127-0.9 0.107-0.753 0.707-0.287c0.273-0.113 0.547-0.273 0.833-0.487l0.6-0.453 0.693 0.28 0.847 0.34 0.467-0.807-0.72-0.56-0.593-0.467 0.093-0.753c0.027-0.207 0.033-0.347 0.033-0.487s-0.013-0.287-0.033-0.487l-0.093-0.753 0.593-0.467 0.733-0.56zM8 10.667c-1.473 0-2.667-1.193-2.667-2.667s1.193-2.667 2.667-2.667 2.667 1.193 2.667 2.667c0 1.473-1.193 2.667-2.667 2.667z"></path>
<path   d="M12.953 8.653c0.027-0.213 0.047-0.427 0.047-0.653s-0.020-0.44-0.047-0.653l1.407-1.1c0.127-0.1 0.16-0.28 0.080-0.427l-1.333-2.307c-0.060-0.107-0.173-0.167-0.293-0.167-0.040 0-0.080 0.007-0.113 0.020l-1.66 0.667c-0.347-0.267-0.72-0.487-1.127-0.653l-0.253-1.767c-0.020-0.16-0.16-0.28-0.327-0.28h-2.667c-0.167 0-0.307 0.12-0.327 0.28l-0.253 1.767c-0.407 0.167-0.78 0.393-1.127 0.653l-1.66-0.667c-0.040-0.013-0.080-0.020-0.12-0.020-0.113 0-0.227 0.060-0.287 0.167l-1.333 2.307c-0.087 0.147-0.047 0.327 0.080 0.427l1.407 1.1c-0.027 0.213-0.047 0.433-0.047 0.653s0.020 0.44 0.047 0.653l-1.407 1.1c-0.127 0.1-0.16 0.28-0.080 0.427l1.333 2.307c0.060 0.107 0.173 0.167 0.293 0.167 0.040 0 0.080-0.007 0.113-0.020l1.66-0.667c0.347 0.267 0.72 0.487 1.127 0.653l0.253 1.767c0.020 0.16 0.16 0.28 0.327 0.28h2.667c0.167 0 0.307-0.12 0.327-0.28l0.253-1.767c0.407-0.167 0.78-0.393 1.127-0.653l1.66 0.667c0.040 0.013 0.080 0.020 0.12 0.020 0.113 0 0.227-0.060 0.287-0.167l1.333-2.307c0.080-0.147 0.047-0.327-0.080-0.427l-1.407-1.1zM11.633 7.513c0.027 0.207 0.033 0.347 0.033 0.487s-0.013 0.287-0.033 0.487l-0.093 0.753 0.593 0.467 0.72 0.56-0.467 0.807-0.847-0.34-0.693-0.28-0.6 0.453c-0.287 0.213-0.56 0.373-0.833 0.487l-0.707 0.287-0.107 0.753-0.133 0.9h-0.933l-0.127-0.9-0.107-0.753-0.707-0.287c-0.287-0.12-0.553-0.273-0.82-0.473l-0.607-0.467-0.707 0.287-0.847 0.34-0.467-0.807 0.72-0.56 0.593-0.467-0.093-0.753c-0.020-0.207-0.033-0.36-0.033-0.493s0.013-0.287 0.033-0.487l0.093-0.753-0.593-0.467-0.72-0.56 0.467-0.807 0.847 0.34 0.693 0.28 0.6-0.453c0.287-0.213 0.56-0.373 0.833-0.487l0.707-0.287 0.107-0.753 0.133-0.9h0.927l0.127 0.9 0.107 0.753 0.707 0.287c0.287 0.12 0.553 0.273 0.82 0.473l0.607 0.467 0.707-0.287 0.847-0.34 0.467 0.807-0.713 0.567-0.593 0.467 0.093 0.753zM8 5.333c-1.473 0-2.667 1.193-2.667 2.667s1.193 2.667 2.667 2.667c1.473 0 2.667-1.193 2.667-2.667s-1.193-2.667-2.667-2.667zM8 9.333c-0.733 0-1.333-0.6-1.333-1.333s0.6-1.333 1.333-1.333c0.733 0 1.333 0.6 1.333 1.333s-0.6 1.333-1.333 1.333z"></path>
</symbol>
<symbol id="icon-notification" viewBox="0 0 16 16">
<path  opacity="0.3" d="M9.447 3.333l3.22 3.22v6.113h-9.333v-9.333h6.113zM4.667 10h6.667v1.333h-6.667v-1.333zM4.667 7.333h6.667v1.333h-6.667v-1.333zM4.667 4.667h4.667v1.333h-4.667v-1.333z"></path>
<path   d="M9.447 3.333l3.22 3.22v6.113h-9.333v-9.333h6.113zM9.447 2h-6.113c-0.733 0-1.333 0.6-1.333 1.333v9.333c0 0.733 0.6 1.333 1.333 1.333h9.333c0.733 0 1.333-0.6 1.333-1.333v-6.113c0-0.353-0.14-0.693-0.393-0.94l-3.22-3.22c-0.247-0.253-0.587-0.393-0.94-0.393zM4.667 10h6.667v1.333h-6.667v-1.333zM4.667 7.333h6.667v1.333h-6.667v-1.333zM4.667 4.667h4.667v1.333h-4.667v-1.333z"></path>
</symbol>
<symbol id="icon-chevron_right" viewBox="0 0 16 16">
<path  d="M6.667 4l-0.94 0.94 3.053 3.060-3.053 3.060 0.94 0.94 4-4-4-4z"></path>
</symbol>
</defs>
</svg>
